<?xml version="1.0" encoding="UTF-8" standalone="no"?>
<!DOCTYPE svg PUBLIC "-//W3C//DTD SVG 1.1//EN" "http://www.w3.org/Graphics/SVG/1.1/DTD/svg11.dtd">
<svg width="100%" height="100%" viewBox="0 0 1920 635" version="1.1" xmlns="http://www.w3.org/2000/svg" xmlns:xlink="http://www.w3.org/1999/xlink" xml:space="preserve" xmlns:serif="http://www.serif.com/" style="fill-rule:evenodd;clip-rule:evenodd;stroke-linejoin:round;stroke-miterlimit:2;">
    <g transform="matrix(1.08397,0,0,0.783563,-218.735,-413.241)">
        <g>
            <g transform="matrix(1,0,1.11022e-16,1,-0.125507,0.0719178)">
                <path d="M1185.81,1127.17L1319.9,932.311L1181.45,730.912L1334.81,527.315L1620.8,932.311L1335.16,1336.82L1185.81,1127.17Z" style="fill-rule:nonzero;"/>
            </g>
            <g transform="matrix(1,0,1.11022e-16,1,352.257,0.0719178)">
                <path d="M1185.81,1127.17L1319.9,932.311L1181.45,730.912L1334.81,527.315L1620.8,932.311L1335.16,1336.82L1185.81,1127.17Z" style="fill-rule:nonzero;"/>
            </g>
        </g>
        <g transform="matrix(-1,-1.69416e-16,8.85255e-17,-1,2174.85,1864.27)">
            <g transform="matrix(1,0,1.11022e-16,1,-0.125507,0.0719178)">
                <path d="M1185.81,1127.17L1319.9,932.311L1181.45,730.912L1334.81,527.315L1620.8,932.311L1335.16,1336.82L1185.81,1127.17Z" style="fill-rule:nonzero;"/>
            </g>
            <g transform="matrix(1,0,1.11022e-16,1,352.257,0.0719178)">
                <path d="M1185.81,1127.17L1319.9,932.311L1181.45,730.912L1334.81,527.315L1620.8,932.311L1335.16,1336.82L1185.81,1127.17Z" style="fill-rule:nonzero;"/>
            </g>
        </g>
    </g>
</svg>
